<?xml version="1.0" encoding="UTF-8" ?>
<svg version="1.1" width="16" height="16" xmlns="http://www.w3.org/2000/svg" shape-rendering="crispEdges">
<rect x="2" y="1" width="1" height="1" fill="#8FD3FF" />
<rect x="3" y="1" width="1" height="1" fill="#8FD3FF" />
<rect x="7" y="1" width="1" height="1" fill="#8FD3FF" />
<rect x="8" y="1" width="1" height="1" fill="#8FD3FF" />
<rect x="12" y="1" width="1" height="1" fill="#8FD3FF" />
<rect x="13" y="1" width="1" height="1" fill="#8FD3FF" />
<rect x="1" y="2" width="1" height="1" fill="#8FD3FF" />
<rect x="2" y="2" width="1" height="1" fill="#4D9BE6" />
<rect x="3" y="2" width="1" height="1" fill="#4D9BE6" />
<rect x="4" y="2" width="1" height="1" fill="#8FD3FF" />
<rect x="6" y="2" width="1" height="1" fill="#8FD3FF" />
<rect x="7" y="2" width="1" height="1" fill="#4D9BE6" />
<rect x="8" y="2" width="1" height="1" fill="#4D9BE6" />
<rect x="9" y="2" width="1" height="1" fill="#8FD3FF" />
<rect x="11" y="2" width="1" height="1" fill="#8FD3FF" />
<rect x="12" y="2" width="1" height="1" fill="#4D9BE6" />
<rect x="13" y="2" width="1" height="1" fill="#4D9BE6" />
<rect x="14" y="2" width="1" height="1" fill="#8FD3FF" />
<rect x="1" y="3" width="1" height="1" fill="#8FD3FF" />
<rect x="2" y="3" width="1" height="1" fill="#4D9BE6" />
<rect x="3" y="3" width="1" height="1" fill="#4D9BE6" />
<rect x="4" y="3" width="1" height="1" fill="#8FD3FF" />
<rect x="6" y="3" width="1" height="1" fill="#8FD3FF" />
<rect x="7" y="3" width="1" height="1" fill="#4D9BE6" />
<rect x="8" y="3" width="1" height="1" fill="#4D9BE6" />
<rect x="9" y="3" width="1" height="1" fill="#8FD3FF" />
<rect x="11" y="3" width="1" height="1" fill="#8FD3FF" />
<rect x="12" y="3" width="1" height="1" fill="#4D9BE6" />
<rect x="13" y="3" width="1" height="1" fill="#4D9BE6" />
<rect x="14" y="3" width="1" height="1" fill="#8FD3FF" />
<rect x="2" y="4" width="1" height="1" fill="#8FD3FF" />
<rect x="3" y="4" width="1" height="1" fill="#8FD3FF" />
<rect x="7" y="4" width="1" height="1" fill="#8FD3FF" />
<rect x="8" y="4" width="1" height="1" fill="#8FD3FF" />
<rect x="12" y="4" width="1" height="1" fill="#8FD3FF" />
<rect x="13" y="4" width="1" height="1" fill="#8FD3FF" />
<rect x="2" y="6" width="1" height="1" fill="#D5E04B" />
<rect x="3" y="6" width="1" height="1" fill="#D5E04B" />
<rect x="7" y="6" width="1" height="1" fill="#8FD3FF" />
<rect x="8" y="6" width="1" height="1" fill="#8FD3FF" />
<rect x="12" y="6" width="1" height="1" fill="#8FD3FF" />
<rect x="13" y="6" width="1" height="1" fill="#8FD3FF" />
<rect x="1" y="7" width="1" height="1" fill="#D5E04B" />
<rect x="2" y="7" width="1" height="1" fill="#9E4539" />
<rect x="3" y="7" width="1" height="1" fill="#9E4539" />
<rect x="4" y="7" width="1" height="1" fill="#D5E04B" />
<rect x="6" y="7" width="1" height="1" fill="#8FD3FF" />
<rect x="7" y="7" width="1" height="1" fill="#4D9BE6" />
<rect x="8" y="7" width="1" height="1" fill="#4D9BE6" />
<rect x="9" y="7" width="1" height="1" fill="#8FD3FF" />
<rect x="11" y="7" width="1" height="1" fill="#8FD3FF" />
<rect x="12" y="7" width="1" height="1" fill="#4D9BE6" />
<rect x="13" y="7" width="1" height="1" fill="#4D9BE6" />
<rect x="14" y="7" width="1" height="1" fill="#8FD3FF" />
<rect x="1" y="8" width="1" height="1" fill="#D5E04B" />
<rect x="2" y="8" width="1" height="1" fill="#9E4539" />
<rect x="3" y="8" width="1" height="1" fill="#9E4539" />
<rect x="4" y="8" width="1" height="1" fill="#D5E04B" />
<rect x="6" y="8" width="1" height="1" fill="#8FD3FF" />
<rect x="7" y="8" width="1" height="1" fill="#4D9BE6" />
<rect x="8" y="8" width="1" height="1" fill="#4D9BE6" />
<rect x="9" y="8" width="1" height="1" fill="#8FD3FF" />
<rect x="11" y="8" width="1" height="1" fill="#8FD3FF" />
<rect x="12" y="8" width="1" height="1" fill="#4D9BE6" />
<rect x="13" y="8" width="1" height="1" fill="#4D9BE6" />
<rect x="14" y="8" width="1" height="1" fill="#8FD3FF" />
<rect x="2" y="9" width="1" height="1" fill="#D5E04B" />
<rect x="3" y="9" width="1" height="1" fill="#D5E04B" />
<rect x="7" y="9" width="1" height="1" fill="#8FD3FF" />
<rect x="8" y="9" width="1" height="1" fill="#8FD3FF" />
<rect x="12" y="9" width="1" height="1" fill="#8FD3FF" />
<rect x="13" y="9" width="1" height="1" fill="#8FD3FF" />
<rect x="2" y="11" width="1" height="1" fill="#D5E04B" />
<rect x="3" y="11" width="1" height="1" fill="#D5E04B" />
<rect x="7" y="11" width="1" height="1" fill="#D5E04B" />
<rect x="8" y="11" width="1" height="1" fill="#D5E04B" />
<rect x="12" y="11" width="1" height="1" fill="#D5E04B" />
<rect x="13" y="11" width="1" height="1" fill="#D5E04B" />
<rect x="1" y="12" width="1" height="1" fill="#D5E04B" />
<rect x="2" y="12" width="1" height="1" fill="#9E4539" />
<rect x="3" y="12" width="1" height="1" fill="#9E4539" />
<rect x="4" y="12" width="1" height="1" fill="#D5E04B" />
<rect x="6" y="12" width="1" height="1" fill="#D5E04B" />
<rect x="7" y="12" width="1" height="1" fill="#9E4539" />
<rect x="8" y="12" width="1" height="1" fill="#9E4539" />
<rect x="9" y="12" width="1" height="1" fill="#D5E04B" />
<rect x="11" y="12" width="1" height="1" fill="#D5E04B" />
<rect x="12" y="12" width="1" height="1" fill="#9E4539" />
<rect x="13" y="12" width="1" height="1" fill="#9E4539" />
<rect x="14" y="12" width="1" height="1" fill="#D5E04B" />
<rect x="1" y="13" width="1" height="1" fill="#D5E04B" />
<rect x="2" y="13" width="1" height="1" fill="#9E4539" />
<rect x="3" y="13" width="1" height="1" fill="#9E4539" />
<rect x="4" y="13" width="1" height="1" fill="#D5E04B" />
<rect x="6" y="13" width="1" height="1" fill="#D5E04B" />
<rect x="7" y="13" width="1" height="1" fill="#9E4539" />
<rect x="8" y="13" width="1" height="1" fill="#9E4539" />
<rect x="9" y="13" width="1" height="1" fill="#D5E04B" />
<rect x="11" y="13" width="1" height="1" fill="#D5E04B" />
<rect x="12" y="13" width="1" height="1" fill="#9E4539" />
<rect x="13" y="13" width="1" height="1" fill="#9E4539" />
<rect x="14" y="13" width="1" height="1" fill="#D5E04B" />
<rect x="2" y="14" width="1" height="1" fill="#D5E04B" />
<rect x="3" y="14" width="1" height="1" fill="#D5E04B" />
<rect x="7" y="14" width="1" height="1" fill="#D5E04B" />
<rect x="8" y="14" width="1" height="1" fill="#D5E04B" />
<rect x="12" y="14" width="1" height="1" fill="#D5E04B" />
<rect x="13" y="14" width="1" height="1" fill="#D5E04B" />
</svg>